<svg xmlns="http://www.w3.org/2000/svg" version="1.1" xmlns:xlink="http://www.w3.org/1999/xlink" xmlns:svgjs="http://svgjs.com/svgjs" width="1440" height="560" preserveAspectRatio="none" viewBox="0 0 1440 560"><g mask="url(&quot;#SvgjsMask1780&quot;)" fill="none"><rect width="1440" height="560" x="0" y="0" fill="url(#SvgjsLinearGradient1781)"></rect><path d="M1512 560L0 560 L0 294.57Q22.66 197.23, 120 219.88Q193.32 173.2, 240 246.53Q268.69 155.23, 360 183.92Q428.86 132.78, 480 201.64Q547.58 197.22, 552 264.79Q627.65 220.44, 672 296.09Q702.16 254.25, 744 284.41Q765.5 185.92, 864 207.42Q894.66 166.08, 936 196.74Q986.52 175.26, 1008 225.79Q1096.02 193.81, 1128 281.82Q1156.97 238.79, 1200 267.77Q1249.64 197.41, 1320 247.06Q1333.85 188.91, 1392 202.76Q1443.63 134.38, 1512 186.01z" fill="rgba(196, 215, 255, 1)"></path><path d="M1536 560L0 560 L0 298.46Q103.86 282.32, 120 386.19Q131.13 325.32, 192 336.46Q207.4 279.86, 264 295.26Q310.02 221.28, 384 267.31Q439 250.31, 456 305.3Q546.35 275.64, 576 365.99Q603.38 321.37, 648 348.74Q698.19 278.94, 768 329.13Q776.86 265.99, 840 274.85Q882.48 245.33, 912 287.8Q994.76 298.56, 984 381.32Q999.28 276.6, 1104 291.87Q1174.01 241.88, 1224 311.88Q1270.36 286.24, 1296 332.6Q1369.91 286.51, 1416 360.42Q1455.82 280.24, 1536 320.06z" fill="rgba(59, 122, 227, 1)"></path><path d="M1464 560L0 560 L0 435.27Q5.65 368.92, 72 374.57Q137.1 319.67, 192 384.78Q233.33 354.11, 264 395.43Q282.28 341.71, 336 359.98Q384.11 336.09, 408 384.2Q482.76 386.96, 480 461.72Q556.75 418.47, 600 495.22Q627.18 402.4, 720 429.59Q772.57 362.15, 840 414.72Q891.14 345.87, 960 397.01Q1024.17 389.18, 1032 453.35Q1047.25 348.6, 1152 363.84Q1195.73 335.57, 1224 379.3Q1342.16 377.46, 1344 495.62Q1375.6 407.22, 1464 438.81z" fill="rgba(149, 186, 233, 1)"></path><path d="M1464 560L0 560 L0 586.57Q-7.03 507.54, 72 500.5Q100.21 456.71, 144 484.91Q196.91 417.82, 264 470.73Q354.38 441.11, 384 531.48Q452.88 528.36, 456 597.24Q477.44 546.68, 528 568.13Q593.36 513.49, 648 578.84Q692.38 551.22, 720 595.6Q723.37 478.97, 840 482.34Q926.66 497, 912 583.67Q911.03 462.7, 1032 461.74Q1103.67 461.41, 1104 533.08Q1176.95 486.03, 1224 558.97Q1258.87 473.84, 1344 508.7Q1410.88 455.58, 1464 522.45z" fill="white"></path></g><defs><mask id="SvgjsMask1780"><rect width="1440" height="560" fill="#ffffff"></rect></mask><linearGradient x1="84.72%" y1="139.29%" x2="15.28%" y2="-39.29%" gradientUnits="userSpaceOnUse" id="SvgjsLinearGradient1781"><stop stop-color="rgba(0, 69, 158, 1)" offset="0.08"></stop><stop stop-color="rgba(0, 69, 158, 1)" offset="0.44"></stop></linearGradient></defs></svg>